Coordinates
version=1
nRows=11
nColumns=63
inDegrees=yes

Units are S.I. units (second, meters, Newtons, ...)
If the header above contains a line with 'inDegrees', this indicates whether rotational values are in degrees (yes) or radians (no).

endheader
time	pelvis_tilt	pelvis_list	pelvis_rotation	pelvis_tx	pelvis_ty	pelvis_tz	hip_flexion_r	hip_adduction_r	hip_rotation_r	knee_angle_r	knee_angle_r_beta	ankle_angle_r	subtalar_angle_r	mtp_angle_r	hip_flexion_l	hip_adduction_l	hip_rotation_l	knee_angle_l	knee_angle_l_beta	ankle_angle_l	subtalar_angle_l	mtp_angle_l	L5_S1_Flex_Ext	L5_S1_Lat_Bending	L5_S1_axial_rotation	L4_L5_Flex_Ext	L4_L5_Lat_Bending	L4_L5_axial_rotation	L3_L4_Flex_Ext	L3_L4_Lat_Bending	L3_L4_axial_rotation	L2_L3_Flex_Ext	L2_L3_Lat_Bending	L2_L3_axial_rotation	L1_L2_Flex_Ext	L1_L2_Lat_Bending	L1_L2_axial_rotation	L1_T12_Flex_Ext	L1_T12_Lat_Bending	L1_T12_axial_rotation	Abs_r3	Abs_r2	Abs_r1	Abs_t1	Abs_t2	neck_flexion	neck_bending	neck_rotation	arm_flex_r	arm_add_r	arm_rot_r	elbow_flex_r	pro_sup_r	wrist_flex_r	wrist_dev_r	arm_flex_l	arm_add_l	arm_rot_l	elbow_flex_l	pro_sup_l	wrist_flex_l	wrist_dev_l
1.271186	2.931468	-0.317011	93.812550	0.268366	0.746085	0.817155	-6.476080	5.925393	8.181300	4.079785	0.071206	27.717892	-7.985194	0.000000	-3.315372	-3.207808	-0.773421	10.467636	0.182695	37.360473	-2.805326	0.000000	-0.472757	0.632267	0.061475	-0.877957	0.840916	0.065317	-0.776692	1.537295	0.065317	-0.540314	1.537295	0.053791	-0.439002	1.289320	0.049948	-0.270133	0.979382	0.046106	-3.376854	7.152336	0.341906	0.000000	0.000000	9.683483	-1.597482	3.207862	-2.014473	-20.549211	56.471562	22.130006	48.003269	-1.898813	-3.879430	2.338845	-12.882824	101.914704	13.378856	31.741483	-1.578627	-6.763161
1.288136	2.833358	-0.260828	93.788033	0.268337	0.746327	0.817339	-6.630355	5.818969	8.731982	3.862706	0.067417	27.419797	-8.729495	0.000000	-3.525632	-3.095493	-0.713710	10.085037	0.176017	37.228563	-2.613211	0.000000	-0.477667	0.626993	0.035601	-0.887076	0.833901	0.037826	-0.784759	1.524471	0.037826	-0.545926	1.524471	0.031151	-0.443562	1.278565	0.028926	-0.272939	0.971212	0.026701	-3.411928	7.092673	0.198001	0.000000	0.000000	9.331484	-1.574432	3.383718	-2.075362	-20.532962	55.060679	22.385802	50.187292	-2.335609	-3.819398	1.734746	-13.229363	95.122502	14.966949	40.479317	-2.504538	-5.009855
1.305085	2.754988	-0.205818	93.768771	0.268287	0.746498	0.817502	-6.787449	5.734634	9.269536	3.618061	0.063147	27.133664	-9.468191	0.000000	-3.751227	-3.002185	-0.664327	9.652839	0.168474	37.121825	-2.368925	0.000000	-0.480980	0.623026	0.011436	-0.893227	0.828624	0.012151	-0.790202	1.514825	0.012151	-0.549712	1.514825	0.010007	-0.446638	1.270474	0.009292	-0.274832	0.965067	0.008577	-3.435590	7.047792	0.063604	0.000000	0.000000	9.018888	-1.550588	3.590231	-2.182259	-20.499733	53.211588	22.639661	52.883109	-2.895292	-3.666234	0.979874	-13.613954	87.952749	16.648821	49.282406	-3.563861	-3.303978
1.322034	2.684007	-0.142115	93.780273	0.268211	0.746630	0.817637	-6.955682	5.666175	9.770269	3.350663	0.058480	26.864392	-10.211292	0.000000	-3.995099	-2.914817	-0.489048	9.185423	0.160316	37.004509	-2.234595	0.000000	-0.483822	0.618073	-0.012465	-0.898506	0.822037	-0.013244	-0.794871	1.502782	-0.013244	-0.552960	1.502782	-0.010907	-0.449277	1.260374	-0.010128	-0.276456	0.957395	-0.009349	-3.455891	6.991764	-0.069328	0.000000	0.000000	8.740451	-1.495457	3.802826	-2.198460	-20.423213	51.939586	22.763317	55.026335	-3.501765	-3.604427	0.179200	-14.108875	80.046749	18.512296	57.462004	-4.639264	-1.820919
1.338983	2.631516	-0.076151	93.793526	0.268150	0.746691	0.817705	-7.124763	5.622442	10.254933	3.075300	0.053674	26.620427	-10.950309	0.000000	-4.244457	-2.849859	-0.313800	8.713999	0.152088	36.922024	-2.085714	0.000000	-0.485298	0.613415	-0.027656	-0.901248	0.815843	-0.029384	-0.797297	1.491458	-0.029384	-0.554648	1.491458	-0.024199	-0.450648	1.250877	-0.022470	-0.277299	0.950180	-0.020742	-3.466438	6.939078	-0.153813	0.000000	0.000000	8.505324	-1.412617	3.992876	-2.208582	-20.349513	50.686110	22.842008	57.071186	-4.150843	-3.514486	-0.753467	-14.717737	70.779454	20.601606	65.705161	-5.671118	-0.287170
1.355932	2.606553	-0.004506	93.826495	0.268032	0.746690	0.817691	-7.297144	5.610714	10.661236	2.798342	0.048840	26.408041	-11.621558	0.000000	-4.496803	-2.809619	-0.053617	8.252342	0.144031	36.855712	-2.023981	0.000000	-0.486043	0.612016	-0.038737	-0.902630	0.813981	-0.041158	-0.798520	1.488056	-0.041158	-0.555498	1.488056	-0.033895	-0.451339	1.248023	-0.031474	-0.277725	0.948013	-0.029053	-3.471755	6.923247	-0.215444	0.000000	0.000000	8.341389	-1.332975	4.208739	-2.226253	-20.373520	48.874863	23.031139	59.417092	-4.967395	-3.365182	-1.656525	-15.351958	62.013732	22.609013	72.810989	-6.874277	1.071867
1.372881	2.598944	0.065181	93.847429	0.267959	0.746662	0.817655	-7.440986	5.621042	11.014755	2.571406	0.044879	26.228064	-12.247746	0.000000	-4.725610	-2.788881	0.204127	7.849864	0.137006	36.822876	-1.995934	0.000000	-0.486285	0.611883	-0.039203	-0.903079	0.813805	-0.041653	-0.798917	1.487733	-0.041653	-0.555775	1.487733	-0.034303	-0.451564	1.247753	-0.031852	-0.277863	0.947807	-0.029402	-3.473483	6.921747	-0.218035	0.000000	0.000000	8.226066	-1.275623	4.390594	-2.082553	-20.297850	48.696812	22.919071	60.273356	-5.511052	-3.359486	-2.400254	-15.995161	54.363206	24.411948	77.918591	-7.949408	2.190282
1.389831	2.600940	0.134417	93.894010	0.267883	0.746603	0.817546	-7.564947	5.645058	11.165263	2.389951	0.041713	26.124268	-12.640939	0.000000	-4.922905	-2.784567	0.470816	7.526645	0.131365	36.831341	-1.972040	0.000000	-0.485854	0.611798	-0.039526	-0.902279	0.813691	-0.041997	-0.798209	1.487525	-0.041997	-0.555282	1.487525	-0.034586	-0.451164	1.247578	-0.032115	-0.277617	0.947675	-0.029645	-3.470404	6.920780	-0.219834	0.000000	0.000000	8.191288	-1.203670	4.543740	-1.819983	-20.162157	49.575711	22.638949	60.043857	-5.925905	-3.483740	-3.067179	-16.635657	47.361032	26.036966	81.647885	-9.069815	3.096763
1.406780	2.620220	0.203193	93.926939	0.267834	0.746571	0.817388	-7.663182	5.689114	11.249984	2.266861	0.039564	26.042420	-12.970021	0.000000	-5.093945	-2.800840	0.693155	7.278951	0.127042	36.864658	-1.956095	0.000000	-0.484222	0.613704	-0.031824	-0.899248	0.816227	-0.033813	-0.795528	1.492161	-0.033813	-0.553417	1.492161	-0.027846	-0.449648	1.251466	-0.025857	-0.276684	0.950628	-0.023868	-3.458746	6.942348	-0.176994	0.000000	0.000000	8.180900	-1.172360	4.674695	-1.414652	-19.967570	52.003300	22.117584	58.500822	-6.077151	-3.725175	-3.471491	-17.174079	42.343638	27.232131	82.973828	-9.945750	3.652863
1.423729	2.649129	0.265196	93.967749	0.267785	0.746589	0.817176	-7.734082	5.748319	11.272701	2.195981	0.038327	25.981390	-13.248364	0.000000	-5.228356	-2.831901	0.875061	7.108234	0.124062	36.912892	-1.926598	0.000000	-0.480536	0.616062	-0.026381	-0.892404	0.819362	-0.028030	-0.789473	1.497893	-0.028030	-0.549205	1.497893	-0.023083	-0.446226	1.256273	-0.021434	-0.274578	0.954280	-0.019786	-3.432422	6.969014	-0.146722	0.000000	0.000000	8.196716	-1.159028	4.781765	-0.770461	-19.752458	56.260572	21.375367	55.309633	-6.043730	-4.174392	-3.642500	-17.484665	40.482642	27.633286	81.424227	-10.390168	3.757357
1.440678	2.686606	0.313839	94.009439	0.267742	0.746663	0.816925	-7.770046	5.817630	11.247929	2.181008	0.038066	25.931864	-13.484762	0.000000	-5.316969	-2.874185	1.027587	7.017196	0.122473	36.960890	-1.920175	0.000000	-0.474012	0.618860	-0.019905	-0.880288	0.823084	-0.021149	-0.778755	1.504696	-0.021149	-0.541749	1.504696	-0.017417	-0.440168	1.261980	-0.016173	-0.270851	0.958614	-0.014929	-3.385822	7.000669	-0.110706	0.000000	0.000000	8.221125	-1.163179	4.850160	0.024179	-19.513129	61.831119	20.468720	50.996629	-5.853647	-4.749958	-3.565187	-17.548570	42.131586	27.144176	77.071129	-10.386359	3.366605
